<?xml version="1.0" encoding="UTF-8" standalone="no"?>
<!DOCTYPE svg PUBLIC "-//W3C//DTD SVG 1.1//EN" "http://www.w3.org/Graphics/SVG/1.1/DTD/svg11.dtd">
<svg width="100%" height="100%" viewBox="0 0 246 63" version="1.1" xmlns="http://www.w3.org/2000/svg" xmlns:xlink="http://www.w3.org/1999/xlink" xml:space="preserve" style="fill-rule:evenodd;clip-rule:evenodd;stroke-linejoin:round;stroke-miterlimit:1.41421;">
    <g transform="matrix(1,0,0,1,-41.5701,-4949.18)">
        <g transform="matrix(1,0,0,1,0.748368,4900.78)">
            <g id="Loog">
                <g id="logo" transform="matrix(1,0,0,1,-47.7677,-112.065)">
                    <g transform="matrix(1,0,0,1,88.5894,160.548)">
                        <path d="M80.1,17.7C78,17.1 75.8,15.9 74.6,14.7L74.1,14.2C72.9,13 71.7,10.8 71.1,8.7C70.9,7.8 70.6,5.7 70.6,5.4C70.4,4.1 69.8,2.8 68.8,1.8C66.3,-0.7 62.3,-0.7 59.7,1.8C57.2,4.3 57.2,8.3 59.7,10.8C60.7,11.8 62,12.4 63.3,12.6C63.5,12.7 65.8,12.9 66.6,13.1C68.6,13.7 70.9,14.9 72.1,16.1L72.6,16.6C73.8,17.8 75,20 75.6,22.1C75.8,22.9 76.1,25.1 76.1,25.4C76.3,26.7 76.9,28 77.9,29C80.4,31.5 84.5,31.5 86.9,29C89.4,26.5 89.4,22.5 86.9,20C85.9,19 84.6,18.4 83.3,18.2C83.2,18.2 80.9,18 80.1,17.7" style="fill:rgb(237,28,36);fill-rule:nonzero;"/>
                    </g>
                    <g transform="matrix(1,0,0,1,88.5894,160.548)">
                        <path d="M68.5,20.4C71,22.9 71,26.8 68.7,29.2C66.3,31.6 62.3,31.5 59.9,29C57.4,26.5 57.3,22.6 59.7,20.2C62,17.8 66,17.9 68.5,20.4" style="fill:rgb(21,23,23);"/>
                    </g>
                    <g transform="matrix(1,0,0,1,88.5894,160.548)">
                        <path d="M87,1.9C89.5,4.4 89.5,8.3 87.2,10.7C84.8,13.1 80.8,13 78.4,10.5C75.9,8 75.8,4.1 78.2,1.7C80.5,-0.7 84.5,-0.6 87,1.9" style="fill:rgb(21,23,23);"/>
                    </g>
                    <g transform="matrix(1,0,0,1,88.5894,160.548)">
                        <path d="M101.5,15.4L101.4,16C101.2,17.3 101.5,17.9 102.2,17.9L113.3,17.9L112.2,23C111.7,25.2 110.1,26.3 107.2,26.3L95.2,26.3C94.4,26.3 93.9,27 93.6,28.3L93.5,29C93.2,30.3 93.4,31 94.2,31L106.2,31C106.6,31 107,30.9 107.6,30.9C111.8,30.2 114.4,27.7 115.4,23.3L118.7,8C119.3,5.1 118.8,2.9 117.1,1.5C116,0.5 114.5,0 112.7,0L101.7,0C100.9,0 100.4,0.7 100.1,2L100,2.6C99.7,3.9 99.9,4.6 100.7,4.6L111.8,4.6L112.7,4.7C114.9,4.9 115.8,6 115.4,7.9L114.2,13.3L103.1,13.3C102.3,13.3 101.7,14 101.5,15.4M140.6,29C140.3,30.3 139.8,31 139,31L138,31C137.2,31 137,30.4 137.2,29L139.6,18L123.3,18L121,29C120.7,30.3 120.2,31 119.4,31L118.4,31C117.6,31 117.4,30.4 117.6,29L123.5,2C123.8,0.7 124.3,0 125.1,0L126.1,0C126.9,0 127.1,0.7 126.9,2L124.4,13.3L140.7,13.3L143.1,2C143.4,0.7 143.9,0 144.7,0L145.7,0C146.5,0 146.7,0.7 146.5,2L140.6,29ZM163.1,15.4C163.4,14 163.2,13.3 162.3,13.3L151.2,13.3L152.4,7.9C152.8,6 154.2,5 156.5,4.7L157.4,4.6L168.5,4.6C169.3,4.6 169.8,3.9 170.1,2.6L170.3,2C170.6,0.7 170.3,0 169.6,0L158.6,0C156.7,0 155,0.5 153.5,1.4C151.2,2.8 149.7,5 149.1,7.9L145.8,23.2C144.9,27.6 146.4,30.1 150.3,30.8C150.8,30.9 151.3,30.9 151.7,30.9L163.7,30.9C164.5,30.9 165,30.3 165.3,28.9L165.4,28.3C165.7,27 165.4,26.3 164.6,26.3L152.7,26.3C149.8,26.3 148.6,25.2 149.1,23L150.2,17.9L161.3,17.9C162,17.9 162.6,17.3 162.9,16L163.1,15.4ZM195.3,11.8C194.6,14.9 193.2,17.1 191.1,18.5C189.5,19.5 187.7,20 185.6,20L174,20L172,29C171.7,30.3 171.2,31 170.4,31L169.4,31C168.6,31 168.4,30.4 168.7,29L174.6,2C174.9,0.7 175.4,0 176.2,0L190.2,0C192,0 193.5,0.5 194.7,1.3C196.4,2.5 197,4.4 196.4,6.9L195.3,11.8ZM192,11.5L192.9,7.3C193.3,5.5 192,4.6 189.1,4.6L177.3,4.6L175,15.3L186.9,15.3C188.3,15.3 189.3,15.1 190.1,14.7C191.1,14.1 191.7,13 192,11.5M222.2,2C222.5,0.6 222.2,0 221.4,0L210.8,0C208.7,0 207.3,0.1 206.5,0.4C203,1.5 200.7,4.1 199.9,8.2L195.4,29C195.1,30.3 195.3,31 196.2,31L197.2,31C198,31 198.5,30.4 198.8,29L203.4,8.2C203.7,6.5 204.8,5.5 206.4,5C207.1,4.8 208.2,4.7 209.9,4.7L220.5,4.7C221.3,4.7 221.8,4 222.1,2.7L222.2,2ZM242.6,22.7C241.4,28.2 237.9,31 232.2,31L227,31C222.9,31 220.6,29.5 220.1,26.4C219.9,25.3 220,24.1 220.3,22.7L223.4,8.4C224.6,2.8 228.1,0 233.7,0L238.9,0C241.4,0 243.2,0.4 244.3,1.2C246,2.5 246.4,4.9 245.6,8.4L242.6,22.7ZM239.3,22.6L242.4,8.6C243,6 241.5,4.7 238.1,4.7L232.8,4.7C229.4,4.7 227.4,6 226.8,8.6L223.7,22.6C223.1,25.1 224.6,26.4 228,26.4L233.3,26.4C236.8,26.3 238.7,25.1 239.3,22.6" style="fill:rgb(21,23,23);fill-rule:nonzero;"/>
                    </g>
                    <g transform="matrix(1,0,0,1,88.5894,160.548)">
                        <path d="M28.4,0L27.4,0C26.6,0 26.1,0.7 25.8,2L23.3,13.3L6.9,13.3L9.4,2C9.7,0.7 9.4,0 8.6,0L7.6,0C6.8,0 6.3,0.7 6,2L0.1,29C0.1,29.3 0,29.6 0,29.9C0,30.6 0.3,31 0.9,31L1.9,31C2.7,31 3.2,30.3 3.5,29L5.9,18L22.3,18L20,29C19.9,29.3 19.9,29.6 19.9,29.9C19.9,30.6 20.2,31 20.8,31L21.8,31C22.6,31 23.1,30.3 23.4,29L29.3,2C29.5,0.7 29.2,0 28.4,0" style="fill:rgb(237,28,36);fill-rule:nonzero;"/>
                    </g>
                    <g transform="matrix(1,0,0,1,88.5894,160.548)">
                        <path d="M53.6,0C53.5,0 53.4,0 53.3,0L42.7,0C42.2,0 41.7,0 41.2,0C39.8,0 38.9,0.2 38.3,0.3C34.7,1.4 32.5,4 31.6,8.1L27.1,29C27,29.3 27,29.6 27,29.9C27,30.4 27.1,30.7 27.4,30.9C27.5,31 27.7,31 27.9,31L28.9,31C29.1,31 29.3,31 29.5,30.9C30,30.7 30.4,30 30.6,29L35.2,8.2C35.5,6.5 36.6,5.5 38.3,5C38.8,4.9 39.6,4.8 40.7,4.7L52.6,4.7C53.4,4.7 54,4 54.2,2.7L54.1,2C54.2,1.7 54.2,1.4 54.2,1.1C54.3,0.5 54.1,0.2 53.6,0" style="fill:rgb(237,28,36);fill-rule:nonzero;"/>
                    </g>
                </g>
                <g id="Энергия-бесконечности" transform="matrix(1,0,0,1,40.7617,107.223)">
                    <text x="0px" y="0px" style="font-family:'LucidaGrande', 'Lucida Grande', sans-serif;font-weight:500;font-size:20px;fill:rgb(32,32,32);">Энергия бесконечности</text>
                </g>
            </g>
        </g>
    </g>
</svg>
