<svg width="220" height="33" viewBox="0 0 220 33" fill="none" xmlns="http://www.w3.org/2000/svg">
<path fill-rule="evenodd" clip-rule="evenodd" d="M19.8076 10.7204C19.8072 12.2468 19.1889 13.7619 18.4857 15.0808C18.4857 15.0808 18.4024 15.2336 18.2784 15.4536C18.152 15.676 11.6959 26.8441 11.6959 26.8441H6.65165L10.1146 20.8625L14.7743 12.8242L14.8581 12.6828C15.4792 11.6101 15.4821 9.84999 14.8703 8.77489L14.2914 7.75218L12.7244 4.99189L14.7016 1.59976L14.6995 1.60097L15.4674 0.281677L18.7255 6.05329C19.441 7.43948 19.8084 9.07187 19.8076 10.7204ZM39.9578 26.8452V9.14674H35.1448V5.34279H49.1288V9.14674H44.3155V26.8452H39.9578ZM47.014 19.0436C47.014 14.5304 49.6811 10.8872 54.0388 10.8872C58.3639 10.8872 60.8029 14.3692 60.8029 19.2047V20.3012H50.9493C51.1119 22.4284 52.3802 24.1047 54.7542 24.1047C55.8599 24.1047 57.2908 23.5571 58.1688 22.5896L59.9574 24.9107C58.559 26.4262 56.4452 27.2321 54.3314 27.2321C49.9087 27.2321 47.014 23.944 47.014 19.0436ZM67.3066 21.6547L70.1033 26.8452H74.3634L69.7456 18.9145L74.1033 11.2744H69.8432L67.3066 16.1748L64.7375 11.2744H60.4774L64.8351 18.9145L60.2498 26.8452H64.4774L67.3066 21.6547ZM75.3711 26.8452V11.2744H79.2735V17.0774H84.1841V11.2744H88.119V26.8452H84.1841V20.4623H79.2735V26.8452H75.3711ZM96.7041 10.8874C92.0867 10.8874 89.6147 14.6918 89.6147 19.0438C89.6147 23.428 92.0867 27.2319 96.7041 27.2319C101.387 27.2319 103.826 23.428 103.826 19.0438C103.826 14.6918 101.387 10.8874 96.7041 10.8874ZM117.159 26.8452V9.14674H109.972V26.8452H105.615V5.34279H121.55V26.8452H117.159ZM127.468 32.7771V24.8786C128.443 26.4905 129.939 27.2319 131.435 27.2319C134.98 27.2319 137.256 24.1049 137.256 19.0438C137.256 13.9499 134.98 10.8874 131.435 10.8874C129.907 10.8874 128.443 11.6933 127.468 13.2411V11.2747H123.565V32.7771H127.468ZM138.491 19.0438C138.491 14.6918 140.963 10.8874 145.581 10.8874C150.264 10.8874 152.703 14.6918 152.703 19.0438C152.703 23.428 150.264 27.2319 145.581 27.2319C140.963 27.2319 138.491 23.428 138.491 19.0438ZM157.841 14.6596H164.085V11.2747H153.938V26.8451H157.841V14.6596ZM169.287 24.8786V32.7771H165.385V11.2747H169.287V13.2411C170.263 11.6933 171.727 10.8874 173.255 10.8874C176.8 10.8874 179.076 13.9499 179.076 19.0438C179.076 24.1049 176.8 27.2319 173.255 27.2319C171.759 27.2319 170.263 26.4905 169.287 24.8786ZM187.141 10.8872C182.783 10.8872 180.117 14.5304 180.117 19.0436C180.117 23.944 183.011 27.2321 187.434 27.2321C189.547 27.2321 191.661 26.4262 193.06 24.9107L191.271 22.5896C190.393 23.5571 188.962 24.1047 187.856 24.1047C185.482 24.1047 184.214 22.4284 184.051 20.3012H193.905V19.2047C193.905 14.3692 191.466 10.8872 187.141 10.8872ZM194.88 19.0438C194.88 14.3045 197.742 10.8874 202.067 10.8874C204.539 10.8874 206.165 11.8868 207.075 12.9832L205.124 15.6589C204.409 14.7881 203.563 14.3045 202.49 14.3045C200.246 14.3045 198.913 16.3359 198.913 19.0438C198.913 21.7517 200.246 23.8152 202.49 23.8152C203.563 23.8152 204.409 23.3313 205.124 22.4605L207.075 25.1365C206.165 26.233 204.539 27.2319 202.067 27.2319C197.742 27.2319 194.88 23.8152 194.88 19.0438ZM214.295 10.8874C209.97 10.8874 207.108 14.3045 207.108 19.0438C207.108 23.8152 209.97 27.2319 214.295 27.2319C216.767 27.2319 218.393 26.233 219.303 25.1365L217.352 22.4605C216.636 23.3313 215.791 23.8152 214.718 23.8152C212.474 23.8152 211.14 21.7517 211.14 19.0438C211.14 16.3359 212.474 14.3045 214.718 14.3045C215.791 14.3045 216.636 14.7881 217.352 15.6589L219.303 12.9832C218.393 11.8868 216.767 10.8874 214.295 10.8874ZM13.7633 9.54112L11.9214 6.37022L7.73327 13.5574L0 26.8443H5.18573L13.7442 11.9226C14.0991 11.319 14.1052 10.1589 13.7633 9.54112ZM24.1738 26.8442H13.2462L18.7027 17.427L24.1738 26.8442ZM21.1222 10.7207C21.1201 12.2713 20.6514 13.8634 19.5925 15.8939C19.5925 15.8939 19.5466 15.9757 19.4994 16.0579L20.9346 18.5274C22.4578 21.1486 24.7763 25.1382 25.7685 26.8444H30.9087L23.19 13.5656L21.0771 9.93207L21.1222 10.7207ZM148.67 19.0438C148.67 16.497 147.728 14.3045 145.581 14.3045C143.5 14.3045 142.556 16.497 142.556 19.0438C142.556 21.6223 143.5 23.8152 145.581 23.8152C147.728 23.8152 148.67 21.6223 148.67 19.0438ZM171.987 14.3045C174.003 14.3045 175.044 16.3359 175.044 19.0438C175.044 21.7839 174.003 23.8152 171.987 23.8152C170.946 23.8152 169.808 22.9771 169.288 21.9773V16.1102C169.808 15.0782 170.946 14.3045 171.987 14.3045ZM133.224 19.0438C133.224 16.3359 132.183 14.3045 130.166 14.3045C129.126 14.3045 127.987 15.0782 127.468 16.1102V21.9773C127.987 22.9771 129.126 23.8152 130.166 23.8152C132.183 23.8152 133.224 21.7839 133.224 19.0438ZM50.9493 17.6574C51.0144 16.0455 51.7949 14.0146 53.9737 14.0146C56.2501 14.0146 56.9656 16.0455 57.0306 17.6574H50.9493ZM99.7939 19.0438C99.7939 16.497 98.8508 14.3045 96.7041 14.3045C94.6228 14.3045 93.6797 16.497 93.6797 19.0438C93.6797 21.6223 94.6228 23.8152 96.7041 23.8152C98.8508 23.8152 99.7939 21.6223 99.7939 19.0438ZM184.051 17.6574C184.116 16.0455 184.897 14.0146 187.076 14.0146C189.353 14.0146 190.068 16.0455 190.133 17.6574H184.051Z" fill="#B20933"/>
</svg>
