<svg width="408" height="186" viewBox="0 0 408 186" fill="none" xmlns="http://www.w3.org/2000/svg">
<path d="M358.868 0.30368L296.872 62.1343L358.868 123.963H376.546L399.251 123.947L337.292 62.1343L388.004 11.5667L399.251 0.30368H358.868ZM208.453 100.822L201.466 110.849L194.141 100.822H189.666V123.619H191.907L194.291 121.242V108.561L200.741 117.477H201.694L208.085 108.483V123.619H210.3L212.687 121.242V100.822H208.453ZM96.8328 100.822L96.4888 105.576C95.6101 117.656 93.7165 119.048 92.3597 119.048C92.2391 119.048 92.1182 119.041 91.9995 119.026L91.5894 118.973L91.476 123.566L91.8082 123.613L93.1352 123.718C97.5327 123.718 99.667 119.597 100.737 109.016L101.144 105.193H106.856V123.619H109.065L111.441 121.242V100.822H96.8328ZM69.1234 100.822V123.619H71.3723L73.7545 121.242V105.193H82.8284V123.619H85.064L87.4542 121.242V100.822H69.1234ZM54.9385 119.248V114.295H62.8831V109.919H54.9385V105.193H63.8215V100.822H50.3138V123.613H61.7522L64.1405 121.242V119.248H54.9385ZM27.5379 100.822V105.193H34.679V123.619H36.9278L39.3101 121.242V105.193H44.0742L46.4602 102.814V100.822H27.5379ZM173.259 104.847C169.209 104.847 166.267 107.943 166.267 112.22C166.267 116.352 169.346 119.597 173.259 119.597C177.456 119.597 180.293 116.626 180.293 112.22C180.293 107.943 177.327 104.847 173.259 104.847ZM173.259 123.964C166.297 123.964 161.425 119.137 161.425 112.22C161.425 105.418 166.401 100.477 173.259 100.477C180.255 100.477 185.128 105.302 185.128 112.22C185.128 119.023 180.14 123.964 173.259 123.964ZM127.725 104.847C123.674 104.847 120.733 107.943 120.733 112.22C120.733 116.352 123.805 119.597 127.725 119.597C131.929 119.597 134.757 116.626 134.757 112.22C134.757 107.943 131.809 104.847 127.725 104.847ZM127.725 123.964C120.761 123.964 115.892 119.137 115.892 112.22C115.892 105.418 120.867 100.477 127.725 100.477C134.721 100.477 139.601 105.302 139.601 112.22C139.601 119.023 134.607 123.964 127.725 123.964ZM153.564 123.67L142.129 112.269L153.564 100.87H160.398L157.754 103.518L148.987 112.269L160.398 123.665L156.871 123.67H153.564ZM288.018 0.30368H279.47H231.911H224.139H212.68V30.2493H249.441L249.435 30.2546V101.352L283.843 66.9551V30.2493H307.352L320.826 16.7976V0.30368H288.018ZM249.435 109.558V113.001V123.964H264.615H272.381L283.842 112.499V78.6599V75.1514L249.435 109.558ZM41.3937 165.914L42.6149 168.315C42.1878 168.796 41.554 169.189 40.7134 169.496C39.8861 169.79 38.9986 169.937 38.0511 169.937C35.8764 169.937 34.1083 169.276 32.7473 167.955C31.3863 166.608 30.7056 164.853 30.7056 162.691C30.7056 160.583 31.3462 158.848 32.6271 157.487C33.908 156.126 35.7097 155.446 38.0315 155.446C38.9121 155.446 39.7326 155.579 40.4931 155.846C41.2539 156.113 41.8609 156.466 42.3144 156.907L40.8933 159.308C39.9594 158.735 39.0054 158.448 38.0315 158.448C36.8972 158.448 35.9565 158.822 35.2093 159.569C34.4753 160.303 34.1083 161.343 34.1083 162.691C34.1083 163.919 34.5017 164.94 35.289 165.753C36.0763 166.541 37.0972 166.934 38.3516 166.934C39.4722 166.934 40.4866 166.594 41.3937 165.914ZM47.8186 162.691C47.8186 160.623 48.5057 158.902 49.8803 157.527C51.2682 156.139 53.0627 155.446 55.2643 155.446C57.4526 155.446 59.2339 156.106 60.6085 157.427C62.0096 158.748 62.7099 160.503 62.7099 162.691C62.7099 164.799 62.0028 166.534 60.5885 167.895C59.1874 169.256 57.4125 169.937 55.2643 169.937C53.0895 169.937 51.3014 169.276 49.9003 167.955C48.5125 166.634 47.8186 164.88 47.8186 162.691ZM51.2213 162.691C51.2213 163.879 51.6147 164.886 52.402 165.714C53.1761 166.527 54.13 166.934 55.2643 166.934C56.5455 166.934 57.5395 166.541 58.2467 165.753C58.9538 164.94 59.3076 163.919 59.3076 162.691C59.3076 161.423 58.9206 160.403 58.1465 159.629C57.3593 158.842 56.3985 158.448 55.2643 158.448C54.09 158.448 53.1228 158.842 52.3623 159.629C51.6015 160.416 51.2213 161.437 51.2213 162.691ZM67.3138 158.688H63.1106V155.686H74.7194V158.688H70.5162V169.697H67.3138V158.688ZM76.7207 169.656V155.726C78.282 155.646 79.6963 155.606 80.964 155.606C82.5117 155.606 83.6826 155.916 84.4767 156.537C85.2708 157.157 85.6676 158.008 85.6676 159.088C85.6676 160.463 85.1339 161.504 84.0662 162.211V162.251C84.6668 162.478 85.1506 162.865 85.5176 163.412C85.8846 163.959 86.0679 164.64 86.0679 165.453C86.0679 166.854 85.5743 167.928 84.5867 168.676C83.6127 169.41 82.3318 169.777 80.7436 169.777C78.889 169.777 77.548 169.737 76.7207 169.656ZM81.1643 164.032H79.9231V166.654C80.2168 166.734 80.577 166.774 81.004 166.774C82.2449 166.774 82.8655 166.281 82.8655 165.293C82.8655 164.452 82.2982 164.032 81.1643 164.032ZM80.9239 158.608L79.9231 158.688V161.23H80.984C81.9716 161.23 82.4652 160.776 82.4652 159.869C82.4652 159.482 82.3182 159.175 82.0249 158.948C81.7312 158.722 81.3642 158.608 80.9239 158.608ZM97.5766 169.697H89.07V155.686H97.3762V158.688H92.2724V161.15H96.7761V164.152H92.2724V166.694H97.5766V169.697ZM103.181 158.688H98.9776V155.686H110.586V158.688H106.383V169.697H103.181V158.688ZM121.675 165.914L122.896 168.315C122.469 168.796 121.835 169.189 120.994 169.496C120.167 169.79 119.279 169.937 118.332 169.937C116.157 169.937 114.389 169.276 113.028 167.955C111.667 166.608 110.986 164.853 110.986 162.691C110.986 160.583 111.627 158.848 112.908 157.487C114.189 156.126 115.99 155.446 118.312 155.446C119.193 155.446 120.013 155.579 120.774 155.846C121.535 156.113 122.142 156.466 122.595 156.907L121.174 159.308C120.24 158.735 119.286 158.448 118.312 158.448C117.178 158.448 116.237 158.822 115.49 159.569C114.756 160.303 114.389 161.343 114.389 162.691C114.389 163.919 114.783 164.94 115.57 165.753C116.357 166.541 117.378 166.934 118.632 166.934C119.753 166.934 120.767 166.594 121.675 165.914ZM127.699 158.688H123.496V155.686H135.105V158.688H130.902V169.697H127.699V158.688ZM137.106 169.656V155.726C138.668 155.646 140.082 155.606 141.35 155.606C142.897 155.606 144.068 155.916 144.862 156.537C145.656 157.157 146.053 158.008 146.053 159.088C146.053 160.463 145.52 161.504 144.452 162.211V162.251C145.052 162.478 145.536 162.865 145.903 163.412C146.27 163.959 146.454 164.64 146.454 165.453C146.454 166.854 145.96 167.928 144.972 168.676C143.998 169.41 142.717 169.777 141.129 169.777C139.275 169.777 137.934 169.737 137.106 169.656ZM141.55 164.032H140.309V166.654C140.602 166.734 140.963 166.774 141.39 166.774C142.631 166.774 143.251 166.281 143.251 165.293C143.251 164.452 142.684 164.032 141.55 164.032ZM141.31 158.608L140.309 158.688V161.23H141.37C142.357 161.23 142.851 160.776 142.851 159.869C142.851 159.482 142.704 159.175 142.411 158.948C142.117 158.722 141.75 158.608 141.31 158.608ZM157.962 169.697H149.456V155.686H157.762V158.688H152.658V161.15H157.162V164.152H152.658V166.694H157.962V169.697ZM172.473 169.697H169.271V164.052H164.167V169.697H160.964V155.686H164.167V161.05H169.271V155.686H172.473V169.697ZM187.585 169.697H184.382V164.052H179.278V169.697H176.076V155.686H179.278V161.05H184.382V155.686H187.585V169.697ZM190.187 162.691C190.187 160.623 190.874 158.902 192.249 157.527C193.637 156.139 195.431 155.446 197.633 155.446C199.821 155.446 201.602 156.106 202.977 157.427C204.378 158.748 205.078 160.503 205.078 162.691C205.078 164.799 204.371 166.534 202.957 167.895C201.556 169.256 199.781 169.937 197.633 169.937C195.458 169.937 193.67 169.276 192.269 167.955C190.881 166.634 190.187 164.88 190.187 162.691ZM193.59 162.691C193.59 163.879 193.983 164.886 194.77 165.714C195.544 166.527 196.498 166.934 197.633 166.934C198.914 166.934 199.908 166.541 200.615 165.753C201.322 164.94 201.676 163.919 201.676 162.691C201.676 161.423 201.289 160.403 200.515 159.629C199.728 158.842 198.767 158.448 197.633 158.448C196.458 158.448 195.491 158.842 194.731 159.629C193.97 160.416 193.59 161.437 193.59 162.691ZM217.368 165.914L218.589 168.315C218.162 168.796 217.528 169.189 216.688 169.496C215.86 169.79 214.973 169.937 214.025 169.937C211.851 169.937 210.082 169.276 208.721 167.955C207.36 166.608 206.68 164.853 206.68 162.691C206.68 160.583 207.32 158.848 208.601 157.487C209.882 156.126 211.684 155.446 214.006 155.446C214.886 155.446 215.707 155.579 216.467 155.846C217.228 156.113 217.835 156.466 218.289 156.907L216.867 159.308C215.934 158.735 214.98 158.448 214.006 158.448C212.871 158.448 211.931 158.822 211.183 159.569C210.449 160.303 210.082 161.343 210.082 162.691C210.082 163.919 210.476 164.94 211.263 165.753C212.05 166.541 213.071 166.934 214.326 166.934C215.446 166.934 216.461 166.594 217.368 165.914ZM223.393 158.688H219.19V155.686H230.798V158.688H226.595V169.697H223.393V158.688ZM236.963 162.991C236.816 162.991 236.496 163.025 236.002 163.091V166.654L236.943 166.734C238.411 166.734 239.144 166.087 239.144 164.793C239.144 163.592 238.417 162.991 236.963 162.991ZM232.8 155.686H236.002V160.069L237.243 159.989C238.991 159.989 240.312 160.399 241.206 161.22C242.1 162.041 242.547 163.205 242.547 164.713C242.547 166.261 242.023 167.485 240.976 168.385C239.929 169.286 238.457 169.737 236.563 169.737C235.735 169.737 235.028 169.73 234.441 169.717L232.8 169.697V155.686ZM248.351 169.697H245.149V155.686H248.351V161.05H250.113C250.46 159.369 251.24 158.021 252.454 157.007C253.669 155.966 255.183 155.446 256.998 155.446C259.16 155.446 260.908 156.106 262.242 157.427C263.577 158.722 264.244 160.476 264.244 162.691C264.244 164.799 263.57 166.541 262.222 167.915C260.875 169.263 259.133 169.937 256.998 169.937C255.237 169.937 253.709 169.41 252.415 168.356C251.12 167.301 250.333 165.867 250.053 164.052H248.351V169.697ZM253.356 162.691C253.356 163.892 253.722 164.9 254.456 165.714C255.19 166.527 256.071 166.934 257.098 166.934C258.339 166.934 259.273 166.554 259.9 165.793C260.528 165.033 260.841 163.999 260.841 162.691C260.841 161.41 260.501 160.383 259.82 159.609C259.14 158.835 258.232 158.448 257.098 158.448C256.017 158.448 255.123 158.842 254.416 159.629C253.709 160.416 253.356 161.437 253.356 162.691ZM274.671 169.937C272.416 169.937 270.742 169.096 269.648 167.415L271.389 165.233C272.403 166.367 273.451 166.934 274.531 166.934C275.092 166.934 275.559 166.811 275.932 166.564C276.306 166.317 276.493 165.947 276.493 165.453C276.493 165.013 276.306 164.666 275.932 164.412C275.559 164.159 275.018 164.032 274.311 164.032H273.03V161.03H274.231C274.738 161.03 275.152 160.917 275.472 160.69C275.792 160.463 275.952 160.149 275.952 159.749C275.952 159.322 275.815 158.998 275.542 158.778C275.269 158.558 274.891 158.448 274.411 158.448C273.451 158.448 272.623 158.935 271.929 159.909L270.088 157.748C270.568 157.054 271.232 156.496 272.079 156.076C272.927 155.656 273.844 155.446 274.832 155.446C276.139 155.446 277.187 155.796 277.974 156.496C278.761 157.197 279.155 158.161 279.155 159.389C279.155 160.603 278.568 161.597 277.393 162.371V162.431C278.928 162.912 279.695 164.026 279.695 165.773C279.695 167.015 279.188 168.022 278.174 168.796C277.16 169.556 275.992 169.937 274.671 169.937ZM284.119 169.697H280.896L286.721 155.686H289.583L295.407 169.697H291.985L290.824 166.754H285.28L284.119 169.697ZM289.623 163.752L288.062 159.789L286.481 163.752H289.623ZM301.212 169.697V155.686H309.658V158.688H304.414V160.91C304.801 160.83 305.335 160.79 306.015 160.79C307.376 160.79 308.471 161.183 309.298 161.971C310.139 162.758 310.559 163.805 310.559 165.113C310.559 166.594 310.082 167.745 309.128 168.566C308.174 169.386 306.836 169.797 305.115 169.797C304.408 169.797 303.627 169.777 302.773 169.737C302.533 169.737 302.289 169.733 302.042 169.726L301.482 169.706L301.212 169.697ZM305.755 163.792L304.414 163.912V166.694L305.615 166.794C306.776 166.794 307.356 166.314 307.356 165.353C307.356 164.886 307.223 164.509 306.956 164.222C306.689 163.935 306.289 163.792 305.755 163.792ZM322.368 155.686H325.59L320.886 166.374C320.393 167.508 319.816 168.345 319.155 168.886C318.495 169.426 317.704 169.697 316.783 169.697C316.396 169.697 315.996 169.633 315.583 169.506C315.169 169.38 314.862 169.236 314.662 169.076L315.783 166.354C316.129 166.581 316.456 166.694 316.763 166.694C317.284 166.694 317.631 166.507 317.804 166.134L317.984 165.714L311.96 155.686H315.583L319.525 162.531L322.368 155.686ZM327.552 172.098H324.55V166.694H326.05C326.451 166.16 326.858 165.18 327.272 163.752C327.698 162.298 327.965 160.543 328.072 158.488L328.192 155.686H337.339V166.694H339.241V172.098H336.238V169.697H327.552V172.098ZM331.295 158.688L331.075 161.05C330.981 162.171 330.768 163.318 330.434 164.492C330.114 165.627 329.827 166.361 329.573 166.694H334.137V158.688H331.295ZM349.288 155.686H352.511L347.807 166.374C347.313 167.508 346.736 168.345 346.076 168.886C345.415 169.426 344.625 169.697 343.704 169.697C343.317 169.697 342.917 169.633 342.503 169.506C342.089 169.38 341.782 169.236 341.582 169.076L342.703 166.354C343.05 166.581 343.377 166.694 343.684 166.694C344.204 166.694 344.551 166.507 344.725 166.134L344.905 165.714L338.88 155.686H342.503L346.446 162.531L349.288 155.686ZM369.824 169.697H354.512V155.686H357.715V166.694H361.117V155.686H364.32V166.694H367.722V155.686H370.925V166.694H372.826V172.098H369.824V169.697ZM383.535 169.697H375.028V155.686H383.334V158.688H378.23V161.15H382.734V164.152H378.23V166.694H383.535V169.697ZM395.043 169.697H386.537V155.686H394.843V158.688H389.739V161.15H394.243V164.152H389.739V166.694H395.043V169.697ZM17.0286 126.109C17.0286 126.109 34.0845 144.98 16.4151 166.764C15.629 166.783 14.807 166.885 13.9316 167.165C12.1677 167.73 11.0675 168.847 10.4125 170.171C9.64183 171.73 8.89575 175.464 10.363 177.063C11.1238 178.193 12.2992 179.224 13.1277 180.053C14.2272 181.157 15.7481 181.841 17.419 181.841H397.827C399.494 181.841 401.016 181.155 402.118 180.052C403.22 178.95 403.907 177.429 403.907 175.762V149.509C403.907 147.841 403.221 146.32 402.119 145.218C401.016 144.115 399.496 143.429 397.827 143.429H29.3007V139.815H397.827C400.494 139.815 402.92 140.906 404.675 142.661C406.431 144.417 407.521 146.842 407.521 149.509V175.762C407.521 178.428 406.43 180.853 404.674 182.609C402.918 184.365 400.493 185.455 397.827 185.455H17.419C14.7563 185.455 12.3348 184.365 10.5788 182.609C-16.4676 155.668 22.6571 142.64 17.0286 126.109ZM8.41197 175.634C5.43823 171.372 6.66016 166.051 9.43887 162.071C11.5936 158.713 14.6898 155.709 15.5935 151.717L15.6657 151.379L15.4937 151.679C13.5359 155.212 10.276 157.768 7.98715 161.059C4.97486 165.341 3.87124 171.977 8.41197 175.634ZM10.6343 175.291C10.335 172.804 10.7394 169.097 14.254 167.973C17.769 166.848 20.4596 169.043 23.3105 166.466C22.0572 178.222 12.3487 173.766 10.8936 176.102C10.7802 175.988 10.6343 175.291 10.6343 175.291Z" fill="#F49712"/>
</svg>
