<?xml version="1.0" encoding="utf-8"?><svg viewBox="0 0 512 512" xmlns="http://www.w3.org/2000/svg" xmlns:xlink="http://www.w3.org/1999/xlink"><style>:root>svg{display:none}:root>svg:target{display:block}</style><svg viewBox="0 0 502.664 502.664" id="icon" xmlns="http://www.w3.org/2000/svg"><path d="M153.821 358.226L0 274.337v-46.463l153.821-83.414v54.574L46.636 250.523l107.185 53.431v54.272zm26.273 29.358L282.103 115.08h32.227L212.084 387.584h-31.99zm168.749-29.358v-54.272l107.164-52.999-107.164-52.59v-53.927l153.821 83.522v46.183l-153.821 84.083z"/></svg><svg viewBox="0 0 59.986 59.986" id="mute" xmlns="http://www.w3.org/2000/svg"><path d="M51.213 8.78C39.517-2.917 20.484-2.916 8.787 8.78 3.121 14.446 0 21.98 0 29.993S3.121 45.54 8.787 51.206c5.848 5.849 13.531 8.772 21.213 8.772s15.365-2.924 21.213-8.772c11.697-11.697 11.697-30.729 0-42.426zm-41.012 1.414C15.66 4.736 22.83 2.007 30 2.007c6.858 0 13.713 2.504 19.074 7.498L42 16.579V10.1a3.068 3.068 0 00-1.563-2.693 3.067 3.067 0 00-3.115.019.967.967 0 00-.174.131L23.906 19.884a1.101 1.101 0 01-.479.109h-8.324a3.108 3.108 0 00-3.104 3.104V35.89a3.108 3.108 0 003.104 3.104h4.482L9.511 49.068A27.803 27.803 0 012 29.993c0-7.479 2.913-14.51 8.201-19.799zm11.385 26.799h-6.482A1.106 1.106 0 0114 35.889V23.096c0-.608.495-1.104 1.104-1.104h8.324A3.1 3.1 0 0025 21.564a.925.925 0 00.176-.131L38.42 9.103a1.09 1.09 0 011.025.037c.166.097.555.382.555.959v8.479L21.586 36.993zM40 21.407v27.479c0 .577-.389.862-.556.958-.158.09-.562.262-1.025.037l-13.244-12.33a.925.925 0 00-.176-.131 3.074 3.074 0 00-.713-.3L40 21.407zm9.799 28.385c-10.68 10.679-27.908 10.904-38.873.689l11.488-11.488h1.013c.166 0 .329.037.479.109L37.148 51.43c.053.05.112.094.174.131a3.101 3.101 0 001.574.434 3.09 3.09 0 001.541-.415A3.07 3.07 0 0042 48.887v-29.48l8.488-8.488c10.216 10.965 9.991 28.193-.689 38.873z"/></svg><svg viewBox="0 0 512 512" id="play-button-arrows" xmlns="http://www.w3.org/2000/svg"><path d="M437.019 74.981C388.668 26.628 324.379 0 256 0S123.332 26.628 74.981 74.981C26.629 123.333 0 187.62 0 256c0 68.38 26.628 132.668 74.981 181.019C123.333 485.371 187.621 512 256 512s132.668-26.628 181.019-74.981C485.371 388.667 512 324.38 512 256s-26.628-132.668-74.981-181.019zM256 480.653C132.125 480.653 31.347 379.874 31.347 256S132.125 31.347 256 31.347 480.653 132.126 480.653 256 379.875 480.653 256 480.653z"/><path d="M170.733 124.363v263.275L398.736 256 170.733 124.363zm31.348 54.295L336.042 256l-133.961 77.342V178.658z"/></svg></svg>